<svg width="1100" height="830" xmlns="http://www.w3.org/2000/svg" font-family="Arial, sans-serif">
  <!-- Background -->
  <rect width="1100" height="830" fill="#f9f9f9" />

  <!-- Title at top -->
  <text x="550" y="50" font-size="22" font-weight="bold" text-anchor="middle" fill="#333">
    Nowayout Microservices Architecture
  </text>

  <!-- Blocks shifted down by +50 -->

  <!-- User Devices -->
  <rect x="50" y="130" width="180" height="60" rx="10" ry="10" fill="#d0e8ff" stroke="#3a82f7" stroke-width="2" />
  <text x="140" y="165" font-size="16" text-anchor="middle" fill="#1a1a1a">User Devices</text>

  <!-- API Gateway -->
  <rect x="300" y="130" width="180" height="60" rx="10" ry="10" fill="#ffe0b3" stroke="#ff9900" stroke-width="2" />
  <text x="390" y="165" font-size="16" text-anchor="middle" fill="#663300">API Gateway</text>

  <!-- Auth Service -->
  <rect x="550" y="80" width="180" height="60" rx="10" ry="10" fill="#c2f0c2" stroke="#339933" stroke-width="2" />
  <text x="640" y="115" font-size="16" text-anchor="middle" fill="#1a4d1a">Authentication Service</text>

  <!-- Game Location Services -->
  <rect x="550" y="190" width="180" height="90" rx="10" ry="10" fill="#ffcccc" stroke="#cc3333" stroke-width="2" />
  <text x="640" y="215" font-size="16" text-anchor="middle" fill="#660000">Game Location Services</text>
  <text x="640" y="235" font-size="14" text-anchor="middle" fill="#660000">- Availability</text>
  <text x="640" y="255" font-size="14" text-anchor="middle" fill="#660000">- Booking</text>

  <!-- Reporting Service -->
  <rect x="550" y="320" width="180" height="60" rx="10" ry="10" fill="#ffd9b3" stroke="#cc6600" stroke-width="2" />
  <text x="640" y="355" font-size="16" text-anchor="middle" fill="#663300">Reporting Service</text>

  <!-- Integration Service -->
  <rect x="550" y="450" width="180" height="90" rx="10" ry="10" fill="#e6ccff" stroke="#9966cc" stroke-width="2" />
  <text x="640" y="475" font-size="16" text-anchor="middle" fill="#4b267b">Integration Service</text>
  <text x="640" y="495" font-size="14" text-anchor="middle" fill="#4b267b">- Payment Gateway</text>
  <text x="640" y="515" font-size="14" text-anchor="middle" fill="#4b267b">- WhatsApp/SMS Reminders</text>

  <!-- Database -->
  <ellipse cx="910" cy="270" rx="110" ry="70" fill="#fff5cc" stroke="#cc9900" stroke-width="2" />
  <text x="910" y="260" font-size="16" text-anchor="middle" fill="#665500">PostgreSQL DB</text>
  <text x="910" y="290" font-size="14" text-anchor="middle" fill="#665500">Multi-tenant data</text>

  <!-- Event Bus -->
  <circle cx="830" cy="470" r="45" fill="#b3ffd9" stroke="#33cc99" stroke-width="2" />
  <text x="830" y="475" font-size="16" text-anchor="middle" fill="#006644">Event Bus</text>

  <!-- AWS Cloud Infra -->
  <rect x="750" y="550" width="270" height="140" rx="15" ry="15" fill="#cce6ff" stroke="#3399ff" stroke-width="2" />
  <text x="885" y="585" font-size="16" font-weight="bold" text-anchor="middle" fill="#004080">AWS Cloud Infrastructure</text>
  <text x="885" y="615" font-size="14" text-anchor="middle" fill="#004080">- Auto Scaling</text>
  <text x="885" y="640" font-size="14" text-anchor="middle" fill="#004080">- Load Balancing</text>
  <text x="885" y="665" font-size="14" text-anchor="middle" fill="#004080">- Infrastructure as Code</text>

  <!-- Arrows -->
  <defs>
    <marker id="arrowhead" markerWidth="10" markerHeight="7"
      refX="10" refY="3.5" orient="auto" fill="#333">
      <polygon points="0 0, 10 3.5, 0 7" />
    </marker>
  </defs>

  <!-- User Devices to API Gateway -->
  <line x1="230" y1="160" x2="300" y2="160" stroke="#333" stroke-width="2" marker-end="url(#arrowhead)" />

  <!-- API Gateway to Auth Service -->
  <line x1="480" y1="160" x2="550" y2="110" stroke="#333" stroke-width="2" marker-end="url(#arrowhead)" />

  <!-- API Gateway to Game Location Services -->
  <line x1="480" y1="160" x2="550" y2="235" stroke="#333" stroke-width="2" marker-end="url(#arrowhead)" />

  <!-- API Gateway to Reporting Service -->
  <line x1="480" y1="160" x2="550" y2="350" stroke="#333" stroke-width="2" marker-end="url(#arrowhead)" />

  <!-- API Gateway to Integration Service -->
  <line x1="480" y1="160" x2="550" y2="495" stroke="#333" stroke-width="2" marker-end="url(#arrowhead)" />

  <!-- Game Location Services to DB -->
  <line x1="730" y1="235" x2="810" y2="270" stroke="#333" stroke-width="2" marker-end="url(#arrowhead)" />

  <!-- Reporting Service to DB -->
  <line x1="730" y1="350" x2="810" y2="270" stroke="#333" stroke-width="2" marker-end="url(#arrowhead)" />

  <!-- Integration Service to Event Bus -->
  <line x1="730" y1="495" x2="785" y2="470" stroke="#333" stroke-width="2" marker-end="url(#arrowhead)" />

  <!-- Event Bus to Game Location Services -->
  <line x1="830" y1="510" x2="730" y2="270" stroke="#333" stroke-width="2" marker-end="url(#arrowhead)" />

  <!-- Event Bus to Reporting Service -->
  <line x1="830" y1="510" x2="730" y2="350" stroke="#333" stroke-width="2" marker-end="url(#arrowhead)" />

  <!-- AWS Cloud Infra connecting to DB and Event Bus -->
  <line x1="885" y1="690" x2="900" y2="320" stroke="#0077cc" stroke-width="2" stroke-dasharray="6,4" />
  <line x1="885" y1="690" x2="830" y2="510" stroke="#0077cc" stroke-width="2" stroke-dasharray="6,4" />
</svg>
